<mxfile host="app.diagrams.net" modified="2024-06-27T03:50:36.438Z" agent="Mozilla/5.0 (Macintosh; Intel Mac OS X 10_15_7) AppleWebKit/537.36 (KHTML, like Gecko) Chrome/123.0.0.0 Safari/537.36" version="24.5.4" etag="1wn8-w2Py4kqfviRnahh" type="github">
  <diagram name="Page-1" id="XjkIaoZqZOWD4CXTHfWl">
    <mxGraphModel>
      <root>
        <mxCell id="0" />
        <mxCell id="1" parent="0" />
      </root>
    </mxGraphModel>
  </diagram>
</mxfile>
